# xmcd CD database file
# Copyright (C) 1997 Ti Kan
# 
# Track frame offsets:
#     182
#     15240
#     26385
#     45012
#     70882
#     88502
#     105255
#     126765
#     147000
#     162997
#     178155
#     199025
#     216732
#     233290
#     250360
#     268005
# 
# Disc length: 3782 seconds
# 
# Revision: 1
# Processed by: cddbd v1.4b41PL1 Copyright (c) Steve Scherf et al.
# Submitted via: DiscPlay 4.0.4
# 
DISCID=cb0ec410
DTITLE=Bobby "Blue" Bland - First Class Blues
DYEAR=1900
DGENRE=
TTITLE0=Two Steps From The Blues
TTITLE1=St. James Infirmary
TTITLE2=Members Only
TTITLE3=Sunday Morning Love
TTITLE4=In The Ghetto
TTITLE5=Sweet Woman's Love
TTITLE6=Angel
TTITLE7=i've Just Got To Know
TTITLE8=Can We Make Love Tonight
TTITLE9=After All
TTITLE10=I Hear You Thinkin'
TTITLE11=Straight From The Shoulder
TTITLE12=Love Me Or Leave Me
TTITLE13=Second Hand Heart
TTITLE14=Walkin' and Talkin' and Singin' The Blues
TTITLE15=Heart, Open Up Again
EXTD=
EXTT0=
EXTT1=
EXTT2=
EXTT3=
EXTT4=
EXTT5=
EXTT6=
EXTT7=
EXTT8=
EXTT9=
EXTT10=
EXTT11=
EXTT12=
EXTT13=
EXTT14=
EXTT15=
PLAYORDER=
